<svg xmlns="http://www.w3.org/2000/svg" viewBox="0 0 32 32" shape-rendering="crispEdges">
  <!-- treads -->
  <rect x="2" y="6" width="4" height="22" fill="#1a1814" rx="1"/>
  <rect x="26" y="6" width="4" height="22" fill="#1a1814" rx="1"/>
  <rect x="3" y="10" width="2" height="2" fill="#3a3128"/>
  <rect x="3" y="16" width="2" height="2" fill="#3a3128"/>
  <rect x="3" y="22" width="2" height="2" fill="#3a3128"/>
  <rect x="27" y="10" width="2" height="2" fill="#3a3128"/>
  <rect x="27" y="16" width="2" height="2" fill="#3a3128"/>
  <rect x="27" y="22" width="2" height="2" fill="#3a3128"/>
  <!-- body -->
  <rect x="6" y="8" width="20" height="20" fill="#d4a73a" rx="2"/>
  <!-- side panels -->
  <rect x="6" y="20" width="20" height="2" fill="#a87f1f"/>
  <rect x="6" y="24" width="20" height="2" fill="#a87f1f"/>
  <!-- binocular eye stalks -->
  <rect x="9" y="9" width="6" height="9" fill="#1a1814" rx="3"/>
  <rect x="17" y="9" width="6" height="9" fill="#1a1814" rx="3"/>
  <!-- eye lenses -->
  <circle cx="12" cy="13.5" r="2.2" fill="#fbf9f5"/>
  <circle cx="20" cy="13.5" r="2.2" fill="#fbf9f5"/>
  <circle cx="12" cy="13.5" r="1.1" fill="#3a8fa3"/>
  <circle cx="20" cy="13.5" r="1.1" fill="#3a8fa3"/>
  <!-- antenna -->
  <rect x="15" y="4" width="2" height="5" fill="#1a1814"/>
  <circle cx="16" cy="3.5" r="1.2" fill="#d4502a"/>
</svg>
