<svg xmlns="http://www.w3.org/2000/svg" viewBox="0 0 64 64" shape-rendering="crispEdges">
  <!-- fox-like body -->
  <polygon points="14,40 24,18 32,30 40,18 50,40 32,56" fill="#c08e2c"/>
  <!-- ear inner -->
  <polygon points="24,20 28,28 22,32" fill="#1a1814"/>
  <polygon points="40,20 36,28 42,32" fill="#1a1814"/>
  <!-- lightning tail -->
  <polygon points="44,30 56,18 50,28 60,22 50,40 54,32 46,38" fill="#d4a73a"/>
  <!-- eyes -->
  <circle cx="26" cy="36" r="2.5" fill="#1a1814"/>
  <circle cx="38" cy="36" r="2.5" fill="#1a1814"/>
  <circle cx="27" cy="35" r="0.8" fill="#fbf9f5"/>
  <circle cx="39" cy="35" r="0.8" fill="#fbf9f5"/>
  <!-- snout -->
  <polygon points="30,42 34,42 32,46" fill="#1a1814"/>
  <!-- spark accent -->
  <polygon points="14,18 18,14 16,22 22,18 18,28 20,22 14,24" fill="#d4502a"/>
</svg>
